<?xml version="1.0"?>
<svg
  xmlns="http://www.w3.org/2000/svg"
  id="Outline"
  width="512"
  height="512"
  fill='#ff9d02'
  viewBox="0 0 512 512"
>
  <g>
    <path
      d="M256,72a183.676,183.676,0,0,1,122.665,46.85l10.67-11.922a200.007,200.007,0,0,0-266.67,0l10.67,11.922A183.672,183.672,0,0,1,256,72Z"
    />
    <path
      d="M256,440a184.154,184.154,0,0,1-138-62.3l-12,10.588a200.006,200.006,0,0,0,300,0l-12-10.588A184.157,184.157,0,0,1,256,440Z"
    />
    <path
      d="M390.119,233.324A137.454,137.454,0,0,1,392,256a135.523,135.523,0,0,1-6.241,40.767A32.374,32.374,0,0,0,374.941,288a147.851,147.851,0,0,0-33.769-12.184,80.027,80.027,0,0,0-89.638-131.034,35.981,35.981,0,0,0-57.643,15.7A36.046,36.046,0,0,0,152,196a35.8,35.8,0,0,0,2.753,13.805c-.469.248-.949.5-1.435.75-4.487,2.334-9.574,4.979-13.185,9.941-3.584,4.924-4.535,10.568-5.375,15.548a46.66,46.66,0,0,1-1.348,6.319,43.607,43.607,0,0,1-2.518,5.6C128.6,252.522,126,257.691,126,264s2.6,11.477,4.892,16.037a43.505,43.505,0,0,1,2.517,5.6,46.677,46.677,0,0,1,1.348,6.318c.84,4.981,1.792,10.626,5.376,15.551,3.611,4.961,8.7,7.606,13.185,9.94a45.364,45.364,0,0,1,5.531,3.188,44.763,44.763,0,0,1,4.651,4.215c3.617,3.576,7.717,7.628,13.629,9.548,5.705,1.853,11.326,1.021,16.286.288A47.429,47.429,0,0,1,200,334a47.429,47.429,0,0,1,6.585.683c.466.068.937.138,1.414.206a26.232,26.232,0,0,0-3.218,7.856,20.263,20.263,0,0,0,3.482,17.2c7.481,9.69,21.862,12.265,34.239,6.1a101.206,101.206,0,0,1,91.038.02q.682.34,1.372.644A135.257,135.257,0,0,1,256,392c-74.99,0-136-61.009-136-136s61.01-136,136-136a134.748,134.748,0,0,1,82.449,27.833,136.991,136.991,0,0,1,48.237,70.385l15.373-4.436a153.109,153.109,0,0,0-53.9-78.666A150.621,150.621,0,0,0,256,104c-83.813,0-152,68.187-152,152s68.187,152,152,152a151.471,151.471,0,0,0,104.912-42.11,23.254,23.254,0,0,0,6.809-5.925,19.185,19.185,0,0,0,2.055-3.277A151.381,151.381,0,0,0,408,256a153.43,153.43,0,0,0-2.1-25.324ZM375.4,311.056a4.825,4.825,0,0,1-.537,3.905c-2.732,3.539-9.048,4.233-14.377,1.585a117.312,117.312,0,0,0-80.789-9.11l-.149.008,0,.029a115.839,115.839,0,0,0-24.435,9.064c-5.339,2.66-11.661,1.968-14.412-1.595a4.823,4.823,0,0,1-.521-3.888c.6-2.676,2.934-6.386,7.678-8.78a133.286,133.286,0,0,1,119.867,0C372.465,304.669,374.8,308.38,375.4,311.056ZM352,216a63.819,63.819,0,0,1-33.745,56.413,149.807,149.807,0,0,0-47.509,4.285A29.624,29.624,0,0,0,274,264c0-6.309-2.6-11.477-4.892-16.037a43.505,43.505,0,0,1-2.517-5.6,28.856,28.856,0,0,1-.828-3.375A31.985,31.985,0,1,0,256,216c0,.123,0,.246,0,.369a48.709,48.709,0,0,0-9.32-5.813,45.458,45.458,0,0,1-5.532-3.188c-.514-.375-1.038-.806-1.572-1.278A36,36,0,0,0,261.122,157.9,63.282,63.282,0,0,1,288,152,64.072,64.072,0,0,1,352,216Zm-80,0a16,16,0,1,1,16,16A16.019,16.019,0,0,1,272,216Zm-44-64a20,20,0,1,1-20,20A20.023,20.023,0,0,1,228,152Zm-40,24a20.113,20.113,0,0,1,4.275.454,36.031,36.031,0,0,0,14.982,24.954A20,20,0,1,1,188,176Zm12,142a59.978,59.978,0,0,0-8.926.855c-3.532.522-6.866,1.016-9,.322-2.3-.748-4.741-3.157-7.322-5.709a56.793,56.793,0,0,0-6.484-5.772,57.684,57.684,0,0,0-7.564-4.447c-3.206-1.667-6.235-3.242-7.63-5.159-1.37-1.883-1.936-5.242-2.536-8.8a59.074,59.074,0,0,0-1.907-8.6,55.685,55.685,0,0,0-3.44-7.845C143.548,269.59,142,266.513,142,264s1.548-5.591,3.187-8.85a55.519,55.519,0,0,0,3.44-7.845,59.047,59.047,0,0,0,1.908-8.6c.6-3.556,1.165-6.913,2.535-8.8,1.4-1.917,4.424-3.492,7.63-5.159,1.131-.588,2.279-1.185,3.425-1.828a35.975,35.975,0,0,0,56.8-12.373,52.013,52.013,0,0,1,4.324,3.981,56.97,56.97,0,0,0,6.484,5.773,57.759,57.759,0,0,0,7.565,4.447c3.206,1.667,6.235,3.242,7.63,5.159,1.37,1.883,1.936,5.242,2.536,8.8a59.074,59.074,0,0,0,1.907,8.6,55.685,55.685,0,0,0,3.44,7.845C256.452,258.41,258,261.487,258,264s-1.548,5.591-3.187,8.85a55.557,55.557,0,0,0-3.44,7.844c-.278.856-.529,1.743-.766,2.718q-5.048,2.1-9.961,4.581c-8.247,4.16-14.255,11.467-16.075,19.546a22.6,22.6,0,0,0-.487,7.079c-2.152,2.1-4.2,3.925-6.154,4.559-2.137.693-5.471.2-9-.322A59.978,59.978,0,0,0,200,318Zm140.719,33.763a117.225,117.225,0,0,0-105.395-.021c-5.338,2.66-11.661,1.969-14.411-1.6a4.825,4.825,0,0,1-.522-3.889c.6-2.675,2.934-6.385,7.678-8.779,3.543-1.791,7.194-3.435,10.9-4.906a29.926,29.926,0,0,0,23.327-1.737,100.092,100.092,0,0,1,19.8-7.5,133.835,133.835,0,0,1,13.453.082,131.948,131.948,0,0,1,52.389,14.062c4.739,2.393,7.071,6.1,7.673,8.78a6.576,6.576,0,0,1,.149,2.081q-2.03,2.192-4.153,4.293A14.016,14.016,0,0,1,340.719,351.763Z"
    />
    <path
      d="M480,40v80H456V40H440v80H416V40H400V172a28.045,28.045,0,0,0,23.282,27.6l-7.23,238.578c-.034.6-.052,1.21-.052,1.82a32,32,0,0,0,64,0c0-.61-.018-1.218-.052-1.82L478.3,383.758l-15.992.484,1.652,54.534c0,.08.006.16.011.24.019.325.03.654.03.984a16,16,0,0,1-32,0c0-.33.011-.659.03-.984.005-.08.009-.16.011-.24L439.277,200h17.446l5.1,168.242,15.992-.484-5.1-168.156A28.045,28.045,0,0,0,496,172V40Zm0,132a12.013,12.013,0,0,1-12,12H428a12.013,12.013,0,0,1-12-12V136h64Z"
    />
    <path
      d="M88.45,190.742c15.5-13.31,25.836-39.7,25.836-70.742,0-44.86-21.586-80-49.143-80S16,75.14,16,120c0,29.533,9.356,54.854,23.612,68.708l-1.79,59.05,15.992.484,1.509-49.774A32.212,32.212,0,0,0,72.7,199.1l7.263,239.675c0,.08.006.16.011.24.019.325.03.654.03.984a16,16,0,0,1-32,0c0-.33.011-.659.03-.984,0-.08.009-.16.011-.24l5.288-174.534-15.992-.484L32.052,438.18c-.034.6-.052,1.21-.052,1.82a32,32,0,0,0,64,0c0-.61-.018-1.218-.052-1.82ZM32,120c0-38.283,17.137-64,33.143-64s33.143,25.717,33.143,64-17.138,64-33.143,64S32,158.283,32,120Z"
    />
    <rect
      x="159.351"
      y="252"
      width="25.298"
      height="16.001"
      transform="translate(-129.047 340.96) rotate(-71.566)"
    />
    <rect
      x="191.351"
      y="284"
      width="25.298"
      height="16"
      transform="translate(-81.87 79.495) rotate(-18.435)"
    />
    <rect
      x="212"
      y="241.578"
      width="16"
      height="28.844"
      transform="translate(-115.039 297.048) rotate(-56.31)"
    />
  </g>
</svg>
